<svg width="39" height="39" viewBox="0 0 39 39" fill="none" xmlns="http://www.w3.org/2000/svg">
<g clip-path="url(#clip0_1026_5624)">
<g clip-path="url(#clip1_1026_5624)">
<rect x="-0.166504" width="38.333" height="38.333" rx="19.1665" fill="#161616"/>
<g clip-path="url(#clip2_1026_5624)">
<path d="M-0.111084 36.1066C-0.111084 34.0709 0.642433 32.1073 2.00423 30.5941C3.22597 29.2367 3.96212 27.5118 4.09704 25.6904L4.51348 20.0685C4.68708 17.7248 5.4287 15.4586 6.67425 13.4657C8.32849 10.819 10.7939 8.77774 13.7029 7.64646L13.8463 7.59071C16.0648 6.72796 18.4573 6.40784 20.8246 6.65703L22.225 6.80444C24.4773 7.04153 26.6234 7.88427 28.4353 9.24315C30.118 10.5052 31.4562 12.1704 32.3267 14.0853L32.3842 14.2119C32.9396 15.4337 33.3036 16.7338 33.4636 18.0665L34.2014 24.2155C34.4334 26.1488 35.1707 27.9869 36.339 29.5447C37.7778 31.463 38.5556 33.7963 38.5556 36.1943V39.6112V43.1667C38.5556 46.3577 35.9688 48.9445 32.7778 48.9445H11.4518C5.06581 48.9445 -0.111084 43.7676 -0.111084 37.3816V36.1066Z" fill="white"/>
<path d="M9.66675 16.0552L10.2141 16.7329C10.7761 17.4286 11.6224 17.833 12.5167 17.833C13.1525 17.833 13.7714 17.6282 14.2818 17.2491L15.889 16.0552" stroke="#161616" stroke-width="0.888889" stroke-linecap="round"/>
<path d="M14.3713 26.3619C14.1723 26.2182 13.8945 26.263 13.7508 26.4619C13.6071 26.6609 13.6519 26.9388 13.8509 27.0825L14.1111 26.7222L14.3713 26.3619ZM22.4074 26.7222C22.4074 28.0313 23.4686 29.0925 24.7778 29.0925C26.0869 29.0925 27.1481 28.0313 27.1481 26.7222C27.1481 25.413 26.0869 24.3518 24.7778 24.3518C23.4686 24.3518 22.4074 25.413 22.4074 26.7222ZM14.5462 27.0364L14.286 27.3967L14.5462 27.0364ZM14.1111 26.7222L13.8509 27.0825L14.286 27.3967L14.5462 27.0364L14.8064 26.6761L14.3713 26.3619L14.1111 26.7222ZM22.1459 27.8626L22.3227 28.2704L24.9545 27.13L24.7778 26.7222L24.601 26.3144L21.9692 27.4548L22.1459 27.8626ZM19.0723 28.4999V28.9444C20.1904 28.9444 21.2967 28.715 22.3227 28.2704L22.1459 27.8626L21.9692 27.4548C21.0548 27.8511 20.0688 28.0555 19.0723 28.0555V28.4999ZM14.5462 27.0364L14.286 27.3967C15.6791 28.4029 17.3538 28.9444 19.0723 28.9444V28.4999V28.0555C17.5407 28.0555 16.048 27.5728 14.8064 26.6761L14.5462 27.0364Z" fill="#161616"/>
<path d="M23 16.0552L23.5474 16.7329C24.1093 17.4286 24.9557 17.833 25.85 17.833C26.4858 17.833 27.1046 17.6282 27.615 17.2491L29.2222 16.0552" stroke="#161616" stroke-width="0.888889" stroke-linecap="round"/>
</g>
</g>
</g>
<defs>
<clipPath id="clip0_1026_5624">
<rect width="38.3333" height="38.333" fill="white"/>
</clipPath>
<clipPath id="clip1_1026_5624">
<rect x="-0.166504" width="38.333" height="38.333" rx="19.1665" fill="white"/>
</clipPath>
<clipPath id="clip2_1026_5624">
<rect x="-1" y="-0.833496" width="40" height="40" rx="20" fill="white"/>
</clipPath>
</defs>
</svg>
