<?xml version="1.0" encoding="UTF-8"?>
<svg id="Layer_2" data-name="Layer 2" xmlns="http://www.w3.org/2000/svg" viewBox="0 0 285.03 274.35">
  <defs>
    <style>
      .cls-1 {
        fill: #f4e5c4;
      }
    </style>
  </defs>
  <g id="Layer_1-2" data-name="Layer 1">
    <g>
      <path class="cls-1" d="M182.2,269.35c-5.77,0-10.74-2.96-13.98-8.34-4.26-7.06-7.38-15.88-10.39-24.4-2.71-7.65-5.51-15.55-8.96-21.58-1.47-2.56-3.65-3.98-6.15-3.98-2.89,0-5.55,1.85-7.11,4.95-3.28,6.52-6.03,13.98-8.69,21.19-2.72,7.37-5.53,14.98-8.99,21.92-3.25,6.5-8.87,10.23-15.43,10.23-2.53,0-5.14-.55-7.77-1.63l-.65-.27-.55-.43c-7.96-6.31-16.99-12.37-25.71-18.24-10.3-6.92-20.95-14.08-30.25-21.87-8.68-7.27-9.9-16.88-3.26-25.72l.31-.42,38.9-34.08c1.17-2.23,1.32-4.78.38-6.94-.88-2.04-2.61-3.45-4.88-3.97l-50.94-4.15-.57-.19c-7.3-2.43-15.24-8.41-11.6-23.11,3.14-12.67,8.01-25.83,12.72-38.55,3.35-9.04,6.81-18.39,9.5-27.21l.26-.85.54-.71c3.38-4.46,8.7-7.11,14.24-7.11,1.91,0,3.79.32,5.57.95l.24.09.23.11c7.4,3.53,14.69,8.42,21.73,13.14,7.24,4.86,14.09,9.44,20.92,12.6,1.32.61,2.64.92,3.93.92,3.73,0,6.49-2.59,7.06-6.51l-11.44-49.95-.03-.37c-.4-5.14,1.13-9.9,4.33-13.43,3.38-3.73,8.34-5.84,13.95-5.95h.2s.2,0,.2,0c3.69.22,7.67.32,12.17.32,6.27,0,12.77-.21,19.06-.41,6.36-.21,12.94-.42,19.35-.42,5.71,0,10.71.17,15.3.52,10.54.8,16.95,6.76,18.03,16.8l.09.85-12.15,51.72c.12,1.74.87,3.38,2.15,4.66,1.42,1.43,3.36,2.24,5.31,2.24.2,0,.4,0,.6-.03,8.51-3.99,16.78-9.14,24.78-14.12,6.96-4.34,14.16-8.82,21.66-12.65l.41-.21.44-.13c1.68-.5,3.39-.75,5.08-.75,6.89,0,12.97,4.13,15.86,10.77,4.69,10.79,8.1,23.02,11.4,34.85,2.91,10.45,5.93,21.25,9.75,30.73l.15.38.09.4c2.07,9.22-3.7,18.28-13.13,20.64l-.3.08-.31.04c-7.84.94-15.81,1.39-23.51,1.83-7.03.4-14.3.81-21.32,1.59l-.27.03c-4.82.54-7.02.88-8.75,3.37-1.96,2.82-1.88,6.25.18,8.61l38.22,33.36.23.26c3.27,3.77,4.86,8.4,4.5,13.03-.36,4.65-2.67,9-6.51,12.24l-.25.21-.28.18c-8.53,5.45-17.11,12.08-25.41,18.5-9.4,7.27-19.13,14.79-29.08,20.85-3.79,2.31-7.73,3.53-11.4,3.53Z"/>
      <path d="M284.48,129.93l-.18-.8-.31-.76c-3.72-9.22-6.56-19.41-9.57-30.2-3.34-11.99-6.8-24.39-11.63-35.5-3.69-8.5-11.53-13.78-20.44-13.78-2.18,0-4.36.32-6.5.96l-.88.26-.82.42c-7.69,3.93-14.98,8.47-22.03,12.86-7.89,4.91-15.37,9.57-23.21,13.34-.48-.1-.93-.35-1.3-.73-.22-.22-.46-.53-.6-.94l11.73-49.93.39-1.66-.18-1.7c-1.36-12.52-9.6-20.26-22.63-21.24-4.72-.36-9.84-.53-15.68-.53-6.49,0-13.11.21-19.51.42-6.25.2-12.71.41-18.89.41-4.39,0-8.28-.1-11.87-.32l-.39-.02h-.39c-7.01.14-13.24,2.84-17.56,7.6-4.13,4.55-6.12,10.65-5.61,17.18l.06.73.16.72,11.11,48.52c-.32.97-.97,1.46-1.94,1.46-.55,0-1.18-.16-1.83-.46-6.48-2.99-13.16-7.48-20.24-12.22-7.19-4.82-14.63-9.81-22.36-13.5l-.47-.22-.49-.17c-2.32-.82-4.76-1.24-7.24-1.24-7.09,0-13.9,3.4-18.22,9.09l-1.08,1.42-.52,1.71c-2.65,8.68-5.93,17.54-9.4,26.93-4.76,12.85-9.68,26.14-12.89,39.09-4.98,20.1,8.74,27.01,14.88,29.05l1.14.38,1.2.1,49.89,4.06c.57.19.92.51,1.14,1.01.11.24.35.97.07,1.94l-37.67,32.99-.78.69-.62.83c-8.29,11.05-6.74,23.52,4.05,32.56,9.5,7.96,20.26,15.19,30.67,22.18,8.65,5.81,17.59,11.82,25.4,18.01l1.1.87,1.29.53c3.23,1.33,6.49,2.01,9.68,2.01,8.53,0,15.78-4.74,19.91-13,3.59-7.19,6.45-14.94,9.21-22.43,2.73-7.4,5.31-14.4,8.46-20.67.81-1.62,1.9-2.19,2.64-2.19.8,0,1.43.79,1.81,1.46,3.23,5.64,5.83,12.99,8.59,20.77,3.1,8.76,6.31,17.82,10.83,25.31,4.18,6.94,10.66,10.75,18.26,10.75,4.58,0,9.42-1.47,14-4.25,10.19-6.2,20.03-13.81,29.54-21.16,8.21-6.35,16.7-12.91,25.04-18.24l.56-.36.51-.43c4.86-4.11,7.8-9.67,8.26-15.67.47-5.97-1.56-11.9-5.71-16.69l-.46-.53-.53-.46-37.61-32.82c-.61-.95.19-2.15.29-2.29.38-.55.87-.77,5.21-1.25l.27-.03c6.88-.77,13.76-1.16,21.05-1.57,7.78-.44,15.83-.9,23.82-1.86l.62-.07.61-.15c12.08-3.02,19.47-14.69,16.8-26.58ZM265.26,146.81c-14.84,1.78-29.95,1.76-44.79,3.42-5.08.57-9.41.98-12.57,5.51-3.24,4.65-3.15,10.83.77,15.04l38.17,33.32c4.96,5.73,4.31,13.31-1.45,18.17-18.39,11.74-35.92,28.05-54.39,39.29-2.89,1.76-5.93,2.8-8.8,2.8-3.73,0-7.18-1.75-9.69-5.92-7.78-12.91-11.74-32.7-19.3-45.89-2.52-4.39-6.49-6.49-10.49-6.49-4.5,0-9.04,2.66-11.57,7.7-6.77,13.46-10.96,29.64-17.69,43.12-2.44,4.88-6.33,7.47-10.96,7.47-1.85,0-3.82-.41-5.86-1.26-17.5-13.86-38.89-25.81-55.85-40.02-6.49-5.44-7.72-11.9-2.47-18.89l39.13-34.28c4.66-7.48,1.22-17.3-7.68-19.09l-50.66-4.12c-8.6-2.86-10.4-8.81-8.33-17.16,5.31-21.43,15.66-44.23,22.15-65.5,2.43-3.2,6.31-5.14,10.26-5.14,1.31,0,2.62.21,3.89.67,14.37,6.86,28.53,19.22,42.71,25.77,2.03.94,4.08,1.38,6.02,1.38,6.3,0,11.57-4.61,12.12-11.81l-11.54-50.4c-.66-8.35,5.3-13.83,13.39-13.99,4.1.24,8.26.33,12.46.33,12.69,0,25.73-.83,38.4-.83,5.05,0,10.04.13,14.92.5,7.75.59,12.57,4.35,13.44,12.35l-12.11,51.53c0,6.92,5.79,12.41,12.48,12.41.66,0,1.33-.05,2.01-.17,16.48-7.59,31.11-18.91,47.31-27.19,1.24-.37,2.47-.54,3.66-.54,4.91,0,9.19,2.98,11.27,7.77,8.68,19.96,12.84,44.98,21.1,65.46,1.53,6.84-2.88,13.05-9.47,14.69Z"/>
    </g>
  </g>
</svg>