<svg width="500" height="354" viewBox="0 0 500 354" fill="none" xmlns="http://www.w3.org/2000/svg">
<path d="M128.236 118.876C150.938 120.024 175.083 116.48 197.743 121.723C224.687 127.958 236.882 158.755 223.193 182.314C218.721 190.011 212.61 193.807 204.793 197.956C212.661 209.049 222.923 224.991 230.912 235.071L220.254 235.049C214.603 235.118 207.98 235.356 202.414 235.002C200.153 232.811 195.393 225.653 193.44 222.778C189.036 216.295 184.115 209.489 180.018 202.847C172.306 203.075 162.451 203.084 154.799 202.891C155.256 212.771 154.142 225.645 155.247 235.187C146.235 235.048 137.221 235.085 128.211 235.298C127.664 227.631 127.891 218.17 127.888 210.357L127.892 169.425L127.886 137.535C127.887 132.169 127.669 123.99 128.236 118.876ZM154.898 181.392C169.449 180.921 184.072 184.196 195.56 175.587C199.607 171.808 201.247 167.702 201.479 162.225C202.585 135.97 171.663 141.457 154.807 141.182C155.079 154.116 154.943 168.384 154.898 181.392Z" fill="#FEFEFE"/>
<path d="M411.256 119.027C430.977 119.251 450.882 118.841 470.608 119.004C479.553 119.078 489.789 118.7 498.593 119.16C498.516 126.336 498.555 133.512 498.709 140.687C482.918 140.482 467.119 140.657 451.328 140.599C446.763 140.582 442.194 140.688 437.633 140.417C437.809 148.301 437.792 157.835 437.591 165.678C455.404 165.234 473.943 166.146 491.761 165.445C491.675 169.135 492.339 184.362 490.775 186.295C486.797 186.896 477.299 186.642 472.918 186.636C461.855 186.585 450.792 186.59 439.729 186.652L438.109 186.602C437.029 187.842 437.899 209.539 437.278 213.586L475.323 213.636C482.982 213.642 491.791 213.817 499.335 213.295C499.258 220.625 499.249 227.956 499.318 235.286C471.414 234.638 438.928 234.669 411.033 235.327C410.531 228.506 410.797 218.762 410.797 211.717L410.81 170.998L410.775 139.215C410.771 133.415 410.57 124.606 411.256 119.027Z" fill="#FEFEFE"/>
<path d="M350.903 117.403C352.103 117.212 355.498 117.731 356.857 117.884C368.524 119.195 376.719 122.172 387.062 127.394C384.941 133.641 381.404 141.757 378.867 148.012C370.719 143.811 363.136 140.683 353.985 139.484C346.072 138.448 335.134 138.243 328.619 143.337C326.235 145.199 324.632 147.668 324.319 150.709C322.455 168.766 370.672 164.421 385.734 182.954C390.62 188.967 392.746 197.368 391.846 205.025C390.851 213.522 386.089 221.465 379.381 226.703C366.128 237.047 347.268 238.683 331.178 236.623C315.845 234.028 308.906 231.946 295.648 223.998C298.199 217.793 301.465 209.569 304.513 203.71C306.939 204.904 309.455 206.278 311.889 207.602C323.805 214.085 337.976 216.655 351.417 215.173C356.78 214.581 366.012 209.977 365.455 203.463C364.581 193.283 351.49 191.28 343.621 189.079C330.423 185.571 316.758 183.705 306.364 174.264C294.594 163.453 295.588 141.911 306.737 131.055C318.979 118.945 334.718 117.514 350.903 117.403Z" fill="#FEFEFE"/>
<path d="M269.508 119.533C271.647 119.601 274.356 119.367 276.534 119.24C276.114 147.411 276.838 176.083 276.529 204.296C276.418 214.609 276.804 225.214 276.508 235.485C272.346 235.875 261.351 235.561 256.585 235.568L250.039 235.554C248.961 222.321 249.638 202.609 249.654 188.837C249.681 166.174 249.217 142.388 249.944 119.831C255.128 119.363 264.026 119.543 269.508 119.533Z" fill="#FEFEFE"/>
<path d="M166.364 276.599C170.617 276.525 174.872 276.513 179.126 276.565C179.629 285.482 184.157 350.724 183.277 352.815C181.765 353.484 179.563 353.248 177.837 353.196C172.517 353.166 167.198 353.218 161.88 353.355C161.704 346.811 162.981 330.835 163.488 323.701C164.576 308.393 165.017 291.694 166.364 276.599Z" fill="#F9C748"/>
<path d="M182.059 0.841797L183.074 0.864084C184.333 3.36486 179.379 69.3266 179.387 77.5729C177.06 77.6664 167.842 77.9728 166.128 77.1379C164.964 51.8379 163.502 26.5524 161.742 1.28667C167.489 0.702941 175.657 1.25409 182.059 0.841797Z" fill="#F9C748"/>
<path d="M268.315 28.7754C275.584 32.5431 279.305 37.218 285.567 40.7302C284.118 43.675 276.536 52.3765 274.024 55.3586L252.504 81.1091C248.975 85.3555 244.055 90.8199 241.032 95.2553L236.737 99.8805C233.857 98.1178 229.735 95.0084 226.734 92.9834C232.182 82.52 242.998 67.487 249.279 57.0498C251.889 52.7117 265.735 31.0979 268.315 28.7754Z" fill="#F9C748"/>
<path d="M236.504 254.742C239.453 255.321 277.055 303.251 282.64 309.022C283.318 309.72 285.148 311.86 285.907 312.713L273.682 321.603C271.912 322.914 269.786 324.27 267.934 325.514C253.925 305.105 240.046 282.389 226.625 261.417C229.378 258.924 233.288 256.586 236.504 254.742Z" fill="#F9C748"/>
<path d="M108.6 254.156C111.781 255.796 115.4 258.913 118.747 261.009C114.969 267.787 109.475 275.962 105.208 282.609C95.8816 296.905 86.6918 311.289 77.6391 325.759L72.9126 322.394C68.7708 319.691 64.16 315.964 59.9766 313.034C61.8771 309.714 64.9877 306.409 67.4754 303.388C71.4566 298.515 75.4643 293.665 79.4989 288.836C88.8006 277.728 98.9759 264.765 108.6 254.156Z" fill="#F9C748"/>
<path d="M8.06489 112.838C14.2286 114.424 28.9632 120.633 35.2194 123.109L79.1849 140.295C78.4185 143.069 77.0207 149.653 75.1656 151.754C74.7455 152.229 74.0555 151.954 73.2372 151.857C69.2891 150.376 56.9214 147.447 52.4915 146.286L1.08594 133.175C1.93377 128.515 5.38296 116.52 8.06489 112.838Z" fill="#F9C748"/>
<path d="M77.0349 28.8906C77.5368 28.9429 77.7666 29.1379 78.2638 29.3839C82.2102 35.2979 117.888 90.699 117.987 92.7472C116.553 94.9102 110.939 98.2643 108.563 99.8072L106.043 96.6387C95.8535 84.6551 85.7383 72.6085 75.6985 60.4998C72.0714 56.1501 62.6257 45.3422 60.3008 41.0452C64.4636 37.1018 71.9994 31.5007 77.0349 28.8906Z" fill="#F9C748"/>
<path d="M74.6137 202.188C76.1761 203.091 78.5378 211.447 79.2905 213.675C71.5211 216.455 62.8796 220.123 55.1261 223.187L28.095 233.657C21.8434 236.145 14.7813 239.128 8.43714 241.422C8.0891 241.548 7.91678 241.273 7.41571 240.947C4.81521 234.212 2.96054 227.957 0.929688 221.056C2.88681 220.389 5.42516 219.736 7.44101 219.257C29.9205 213.917 52.1706 207.666 74.6137 202.188Z" fill="#F9C748"/>
<path d="M63.792 86.1504C65.2857 86.3741 91.9037 109.099 95.9975 112.192C95.8261 112.53 95.6452 112.862 95.4549 113.189C94.5432 114.769 88.4738 123.607 86.8415 124.05L85.9959 123.527C83.0983 122.076 80.0409 119.802 77.1764 118.167C69.0174 113.509 60.2026 107.358 51.9609 103.068C54.1962 98.7713 60.4495 89.4552 63.792 86.1504Z" fill="#F9C748"/>
<path d="M134.922 269.895C137.448 270.169 145.782 273.117 148.413 274.136C147.893 278.195 146.115 284.927 145.133 289.034L138.888 314.887C137.756 314.385 136.595 313.901 135.454 313.413C130.893 312.26 123.331 309.681 119.176 307.643C121.824 299.839 125.644 291.409 128.749 283.718C130.071 280.443 133.193 272.582 134.922 269.895Z" fill="#F9C748"/>
<path d="M206.923 40.4004C213.897 41.6578 219.975 44.4672 226.444 45.7337C225.495 49.2403 223.59 53.1563 222.253 56.6175C219.199 64.5201 215.597 72.5504 212.761 80.5096C211.722 83.4994 210.679 84.4689 207.413 83.6306C203.929 82.7366 200.24 81.3737 196.742 80.3755C197.733 75.2098 205.404 43.619 206.923 40.4004Z" fill="#F9C748"/>
<path d="M86.7129 230.158C88.6015 230.598 94.9658 239.938 95.1513 240.952C95.4377 242.517 65.1301 267.688 63.7984 267.824L63.1481 267.02C59.4889 262.49 54.9412 256.156 51.7852 251.289C63.6325 244.431 74.5964 236.94 86.7129 230.158Z" fill="#F9C748"/>
<path d="M30.7283 166.732C44.0167 167.71 59.3548 169.196 72.4078 169.438C72.4353 173.839 73.0782 179.472 72.1777 183.51C71.1429 184.739 71.6504 184.35 69.5081 184.662C61.149 184.711 51.9828 186.179 43.5525 186.425C39.5817 186.541 34.6468 186.956 30.7086 187.514C30.5869 181.765 30.3695 172.234 30.7283 166.732Z" fill="#F9C748"/>
<path d="M210.027 269.74L210.564 269.862C212.424 271.933 224.476 302.981 226.355 307.966C221.406 309.665 216.448 311.337 211.481 312.982C210.434 313.173 208.207 314.255 207.134 314.732C203.207 302.94 200.156 286.879 196.582 274.412C199.283 273.084 206.606 270.939 210.027 269.74Z" fill="#F9C748"/>
<path d="M137.362 40.5566L138.462 40.6196C140.042 42.1321 147.461 75.4338 148.665 80.3779C144.637 81.3208 138.772 83.5764 135.003 84.0581C133.958 83.219 134.007 82.6901 133.472 81.3126C131.948 78.3353 129.828 72.7821 128.487 69.5515C125.274 61.8726 122.139 54.162 119.082 46.4205C122.682 44.6076 133.2 41.4027 137.362 40.5566Z" fill="#F9C748"/>
</svg>
